<mxfile host="app.diagrams.net" modified="2023-11-15T20:06:23.566Z" agent="Mozilla/5.0 (Windows NT 10.0; Win64; x64) AppleWebKit/537.36 (KHTML, like Gecko) Chrome/119.0.0.0 Safari/537.36" etag="E98QXxoXzOJtIkVjHPZ6" version="22.1.1" type="github">
  <diagram id="C5RBs43oDa-KdzZeNtuy" name="Page-1">
    <mxGraphModel dx="3452" dy="1415" grid="1" gridSize="10" guides="1" tooltips="1" connect="1" arrows="1" fold="1" page="1" pageScale="1" pageWidth="827" pageHeight="1169" math="0" shadow="0">
      <root>
        <mxCell id="WIyWlLk6GJQsqaUBKTNV-0" />
        <mxCell id="WIyWlLk6GJQsqaUBKTNV-1" parent="WIyWlLk6GJQsqaUBKTNV-0" />
        <mxCell id="JY4HNiA_IuTMcJkgVd3S-5" value="&lt;p style=&quot;margin:0px;margin-top:4px;text-align:center;&quot;&gt;&lt;i&gt;&amp;lt;&amp;lt;Interface&amp;gt;&amp;gt;&lt;/i&gt;&lt;br&gt;&lt;b&gt;IOtpGenerator&lt;/b&gt;&lt;/p&gt;&lt;p style=&quot;margin:0px;margin-left:4px;&quot;&gt;&lt;br&gt;&lt;/p&gt;&lt;hr size=&quot;1&quot;&gt;&lt;p style=&quot;margin:0px;margin-left:4px;&quot;&gt;+&lt;i&gt;GenerateOtp&lt;/i&gt;();int&lt;/p&gt;" style="verticalAlign=top;align=left;overflow=fill;fontSize=12;fontFamily=Helvetica;html=1;whiteSpace=wrap;" parent="WIyWlLk6GJQsqaUBKTNV-1" vertex="1">
          <mxGeometry x="-120" y="280" width="190" height="80" as="geometry" />
        </mxCell>
        <mxCell id="JY4HNiA_IuTMcJkgVd3S-6" value="FakeOtpGenerator" style="swimlane;fontStyle=1;align=center;verticalAlign=top;childLayout=stackLayout;horizontal=1;startSize=26;horizontalStack=0;resizeParent=1;resizeParentMax=0;resizeLast=0;collapsible=1;marginBottom=0;whiteSpace=wrap;html=1;" parent="WIyWlLk6GJQsqaUBKTNV-1" vertex="1">
          <mxGeometry x="-220" y="480" width="160" height="86" as="geometry" />
        </mxCell>
        <mxCell id="JY4HNiA_IuTMcJkgVd3S-7" value="+ field: type" style="text;strokeColor=none;fillColor=none;align=left;verticalAlign=top;spacingLeft=4;spacingRight=4;overflow=hidden;rotatable=0;points=[[0,0.5],[1,0.5]];portConstraint=eastwest;whiteSpace=wrap;html=1;" parent="JY4HNiA_IuTMcJkgVd3S-6" vertex="1">
          <mxGeometry y="26" width="160" height="26" as="geometry" />
        </mxCell>
        <mxCell id="JY4HNiA_IuTMcJkgVd3S-8" value="" style="line;strokeWidth=1;fillColor=none;align=left;verticalAlign=middle;spacingTop=-1;spacingLeft=3;spacingRight=3;rotatable=0;labelPosition=right;points=[];portConstraint=eastwest;strokeColor=inherit;" parent="JY4HNiA_IuTMcJkgVd3S-6" vertex="1">
          <mxGeometry y="52" width="160" height="8" as="geometry" />
        </mxCell>
        <mxCell id="JY4HNiA_IuTMcJkgVd3S-9" value="+GenerateOtp();int" style="text;strokeColor=none;fillColor=none;align=left;verticalAlign=top;spacingLeft=4;spacingRight=4;overflow=hidden;rotatable=0;points=[[0,0.5],[1,0.5]];portConstraint=eastwest;whiteSpace=wrap;html=1;" parent="JY4HNiA_IuTMcJkgVd3S-6" vertex="1">
          <mxGeometry y="60" width="160" height="26" as="geometry" />
        </mxCell>
        <mxCell id="JY4HNiA_IuTMcJkgVd3S-10" value="FakeOtpSender" style="swimlane;fontStyle=1;align=center;verticalAlign=top;childLayout=stackLayout;horizontal=1;startSize=26;horizontalStack=0;resizeParent=1;resizeParentMax=0;resizeLast=0;collapsible=1;marginBottom=0;whiteSpace=wrap;html=1;" parent="WIyWlLk6GJQsqaUBKTNV-1" vertex="1">
          <mxGeometry x="10" y="480" width="170" height="108" as="geometry" />
        </mxCell>
        <mxCell id="JY4HNiA_IuTMcJkgVd3S-11" value="&lt;span style=&quot;background-color: rgb(255, 255, 255);&quot;&gt;otpGenerator: IOtpGenerator&lt;/span&gt;" style="text;strokeColor=none;fillColor=none;align=left;verticalAlign=top;spacingLeft=4;spacingRight=4;overflow=hidden;rotatable=0;points=[[0,0.5],[1,0.5]];portConstraint=eastwest;whiteSpace=wrap;html=1;" parent="JY4HNiA_IuTMcJkgVd3S-10" vertex="1">
          <mxGeometry y="26" width="170" height="34" as="geometry" />
        </mxCell>
        <mxCell id="JY4HNiA_IuTMcJkgVd3S-12" value="" style="line;strokeWidth=1;fillColor=none;align=left;verticalAlign=middle;spacingTop=-1;spacingLeft=3;spacingRight=3;rotatable=0;labelPosition=right;points=[];portConstraint=eastwest;strokeColor=inherit;" parent="JY4HNiA_IuTMcJkgVd3S-10" vertex="1">
          <mxGeometry y="60" width="170" height="8" as="geometry" />
        </mxCell>
        <mxCell id="JY4HNiA_IuTMcJkgVd3S-13" value="+SendOtp(string mobileNumber);int" style="text;strokeColor=none;fillColor=none;align=left;verticalAlign=top;spacingLeft=4;spacingRight=4;overflow=hidden;rotatable=0;points=[[0,0.5],[1,0.5]];portConstraint=eastwest;whiteSpace=wrap;html=1;" parent="JY4HNiA_IuTMcJkgVd3S-10" vertex="1">
          <mxGeometry y="68" width="170" height="40" as="geometry" />
        </mxCell>
        <mxCell id="JY4HNiA_IuTMcJkgVd3S-14" value="&lt;p style=&quot;margin:0px;margin-top:4px;text-align:center;&quot;&gt;&lt;i&gt;&amp;lt;&amp;lt;Interface&amp;gt;&amp;gt;&lt;/i&gt;&lt;br&gt;&lt;b&gt;IOtpSender&lt;/b&gt;&lt;/p&gt;&lt;hr size=&quot;1&quot;&gt;&lt;p style=&quot;margin:0px;margin-left:4px;&quot;&gt;+ field1: Type&lt;br&gt;+ field2: Type&lt;/p&gt;&lt;hr size=&quot;1&quot;&gt;&lt;p style=&quot;margin:0px;margin-left:4px;&quot;&gt;+ &lt;i&gt;SendOtp&lt;/i&gt;(string mobileNumber);int&lt;br&gt;&lt;/p&gt;" style="verticalAlign=top;align=left;overflow=fill;fontSize=12;fontFamily=Helvetica;html=1;whiteSpace=wrap;" parent="WIyWlLk6GJQsqaUBKTNV-1" vertex="1">
          <mxGeometry x="240" y="280" width="190" height="120" as="geometry" />
        </mxCell>
        <mxCell id="JY4HNiA_IuTMcJkgVd3S-15" value="ValidationService" style="swimlane;fontStyle=1;align=center;verticalAlign=top;childLayout=stackLayout;horizontal=1;startSize=26;horizontalStack=0;resizeParent=1;resizeParentMax=0;resizeLast=0;collapsible=1;marginBottom=0;whiteSpace=wrap;html=1;" parent="WIyWlLk6GJQsqaUBKTNV-1" vertex="1">
          <mxGeometry x="520" y="240" width="300" height="170" as="geometry" />
        </mxCell>
        <mxCell id="JY4HNiA_IuTMcJkgVd3S-16" value="confirmedOtp:bool&lt;br&gt;validatedMobileNumber:bool&lt;br&gt;mobileNumberValidator:IMobileNumberValidator&lt;br&gt;otpSender:IOtpSender" style="text;strokeColor=none;fillColor=none;align=left;verticalAlign=top;spacingLeft=4;spacingRight=4;overflow=hidden;rotatable=0;points=[[0,0.5],[1,0.5]];portConstraint=eastwest;whiteSpace=wrap;html=1;" parent="JY4HNiA_IuTMcJkgVd3S-15" vertex="1">
          <mxGeometry y="26" width="300" height="74" as="geometry" />
        </mxCell>
        <mxCell id="JY4HNiA_IuTMcJkgVd3S-17" value="" style="line;strokeWidth=1;fillColor=none;align=left;verticalAlign=middle;spacingTop=-1;spacingLeft=3;spacingRight=3;rotatable=0;labelPosition=right;points=[];portConstraint=eastwest;strokeColor=inherit;" parent="JY4HNiA_IuTMcJkgVd3S-15" vertex="1">
          <mxGeometry y="100" width="300" height="8" as="geometry" />
        </mxCell>
        <mxCell id="JY4HNiA_IuTMcJkgVd3S-18" value="+ ConfirmOtp(int generatedOtp ,int otp);bool&lt;br&gt;+SendOtp(string mobileNumber);int&lt;br&gt;+ValidateMobileNumber(string mobileNumber);bool" style="text;strokeColor=none;fillColor=none;align=left;verticalAlign=top;spacingLeft=4;spacingRight=4;overflow=hidden;rotatable=0;points=[[0,0.5],[1,0.5]];portConstraint=eastwest;whiteSpace=wrap;html=1;" parent="JY4HNiA_IuTMcJkgVd3S-15" vertex="1">
          <mxGeometry y="108" width="300" height="62" as="geometry" />
        </mxCell>
        <mxCell id="JY4HNiA_IuTMcJkgVd3S-19" value="&lt;p style=&quot;margin:0px;margin-top:4px;text-align:center;&quot;&gt;&lt;i&gt;&amp;lt;&amp;lt;Interface&amp;gt;&amp;gt;&lt;/i&gt;&lt;br&gt;&lt;b&gt;IMobileNumberValidator&lt;/b&gt;&lt;/p&gt;&lt;hr size=&quot;1&quot;&gt;&lt;p style=&quot;margin:0px;margin-left:4px;&quot;&gt;+ field1: Type&lt;br&gt;+ field2: Type&lt;/p&gt;&lt;hr size=&quot;1&quot;&gt;&lt;p style=&quot;margin:0px;margin-left:4px;&quot;&gt;+ &lt;i&gt;ValidateMobileNumber&lt;/i&gt;(string mobileNumber);bool&lt;br&gt;&lt;/p&gt;" style="verticalAlign=top;align=left;overflow=fill;fontSize=12;fontFamily=Helvetica;html=1;whiteSpace=wrap;" parent="WIyWlLk6GJQsqaUBKTNV-1" vertex="1">
          <mxGeometry x="70" y="630" width="310" height="110" as="geometry" />
        </mxCell>
        <mxCell id="JY4HNiA_IuTMcJkgVd3S-20" value="BankService" style="swimlane;fontStyle=1;align=center;verticalAlign=top;childLayout=stackLayout;horizontal=1;startSize=30;horizontalStack=0;resizeParent=1;resizeParentMax=0;resizeLast=0;collapsible=1;marginBottom=0;whiteSpace=wrap;html=1;" parent="WIyWlLk6GJQsqaUBKTNV-1" vertex="1">
          <mxGeometry x="-130" y="840" width="330" height="120" as="geometry" />
        </mxCell>
        <mxCell id="JY4HNiA_IuTMcJkgVd3S-21" value="+ field: type" style="text;strokeColor=none;fillColor=none;align=left;verticalAlign=top;spacingLeft=4;spacingRight=4;overflow=hidden;rotatable=0;points=[[0,0.5],[1,0.5]];portConstraint=eastwest;whiteSpace=wrap;html=1;" parent="JY4HNiA_IuTMcJkgVd3S-20" vertex="1">
          <mxGeometry y="30" width="330" height="26" as="geometry" />
        </mxCell>
        <mxCell id="JY4HNiA_IuTMcJkgVd3S-22" value="" style="line;strokeWidth=1;fillColor=none;align=left;verticalAlign=middle;spacingTop=-1;spacingLeft=3;spacingRight=3;rotatable=0;labelPosition=right;points=[];portConstraint=eastwest;strokeColor=inherit;" parent="JY4HNiA_IuTMcJkgVd3S-20" vertex="1">
          <mxGeometry y="56" width="330" height="8" as="geometry" />
        </mxCell>
        <mxCell id="JY4HNiA_IuTMcJkgVd3S-23" value="+ GetAccount(string accountNo);string&lt;br&gt;+GetBalance(string mobileNumber);decimal&lt;br&gt;+ValidatedMobileNumber(string mobileNumber);bool" style="text;strokeColor=none;fillColor=none;align=left;verticalAlign=top;spacingLeft=4;spacingRight=4;overflow=hidden;rotatable=0;points=[[0,0.5],[1,0.5]];portConstraint=eastwest;whiteSpace=wrap;html=1;" parent="JY4HNiA_IuTMcJkgVd3S-20" vertex="1">
          <mxGeometry y="64" width="330" height="56" as="geometry" />
        </mxCell>
        <mxCell id="JY4HNiA_IuTMcJkgVd3S-24" value="WalletService" style="swimlane;fontStyle=1;align=center;verticalAlign=top;childLayout=stackLayout;horizontal=1;startSize=26;horizontalStack=0;resizeParent=1;resizeParentMax=0;resizeLast=0;collapsible=1;marginBottom=0;whiteSpace=wrap;html=1;" parent="WIyWlLk6GJQsqaUBKTNV-1" vertex="1">
          <mxGeometry x="240" y="840" width="330" height="120" as="geometry" />
        </mxCell>
        <mxCell id="JY4HNiA_IuTMcJkgVd3S-25" value="+ field: type" style="text;strokeColor=none;fillColor=none;align=left;verticalAlign=top;spacingLeft=4;spacingRight=4;overflow=hidden;rotatable=0;points=[[0,0.5],[1,0.5]];portConstraint=eastwest;whiteSpace=wrap;html=1;" parent="JY4HNiA_IuTMcJkgVd3S-24" vertex="1">
          <mxGeometry y="26" width="330" height="26" as="geometry" />
        </mxCell>
        <mxCell id="JY4HNiA_IuTMcJkgVd3S-26" value="" style="line;strokeWidth=1;fillColor=none;align=left;verticalAlign=middle;spacingTop=-1;spacingLeft=3;spacingRight=3;rotatable=0;labelPosition=right;points=[];portConstraint=eastwest;strokeColor=inherit;" parent="JY4HNiA_IuTMcJkgVd3S-24" vertex="1">
          <mxGeometry y="52" width="330" height="8" as="geometry" />
        </mxCell>
        <mxCell id="JY4HNiA_IuTMcJkgVd3S-27" value="+ GetAccount(string accountNo);string&lt;br style=&quot;border-color: var(--border-color);&quot;&gt;+GetBalance(string mobileNumber);decimal&lt;br style=&quot;border-color: var(--border-color);&quot;&gt;+ValidatedMobileNumber(string mobileNumber);bool" style="text;strokeColor=none;fillColor=none;align=left;verticalAlign=top;spacingLeft=4;spacingRight=4;overflow=hidden;rotatable=0;points=[[0,0.5],[1,0.5]];portConstraint=eastwest;whiteSpace=wrap;html=1;" parent="JY4HNiA_IuTMcJkgVd3S-24" vertex="1">
          <mxGeometry y="60" width="330" height="60" as="geometry" />
        </mxCell>
        <mxCell id="JY4HNiA_IuTMcJkgVd3S-28" value="UserAuthenticationService&amp;lt;&amp;lt;abstract&amp;gt;&amp;gt;" style="swimlane;fontStyle=1;align=center;verticalAlign=top;childLayout=stackLayout;horizontal=1;startSize=26;horizontalStack=0;resizeParent=1;resizeParentMax=0;resizeLast=0;collapsible=1;marginBottom=0;whiteSpace=wrap;html=1;" parent="WIyWlLk6GJQsqaUBKTNV-1" vertex="1">
          <mxGeometry x="650" y="510" width="270" height="132" as="geometry" />
        </mxCell>
        <mxCell id="JY4HNiA_IuTMcJkgVd3S-29" value="userRepository:IUserRepository&lt;br&gt;accountServices:IExternalAccountService&lt;br&gt;validationService:ValidationService" style="text;strokeColor=none;fillColor=none;align=left;verticalAlign=top;spacingLeft=4;spacingRight=4;overflow=hidden;rotatable=0;points=[[0,0.5],[1,0.5]];portConstraint=eastwest;whiteSpace=wrap;html=1;" parent="JY4HNiA_IuTMcJkgVd3S-28" vertex="1">
          <mxGeometry y="26" width="270" height="58" as="geometry" />
        </mxCell>
        <mxCell id="JY4HNiA_IuTMcJkgVd3S-30" value="" style="line;strokeWidth=1;fillColor=none;align=left;verticalAlign=middle;spacingTop=-1;spacingLeft=3;spacingRight=3;rotatable=0;labelPosition=right;points=[];portConstraint=eastwest;strokeColor=inherit;" parent="JY4HNiA_IuTMcJkgVd3S-28" vertex="1">
          <mxGeometry y="84" width="270" height="8" as="geometry" />
        </mxCell>
        <mxCell id="JY4HNiA_IuTMcJkgVd3S-31" value="+ GetAccountType();AccountType&lt;br&gt;+RegisterUser(User user);bool" style="text;strokeColor=none;fillColor=none;align=left;verticalAlign=top;spacingLeft=4;spacingRight=4;overflow=hidden;rotatable=0;points=[[0,0.5],[1,0.5]];portConstraint=eastwest;whiteSpace=wrap;html=1;" parent="JY4HNiA_IuTMcJkgVd3S-28" vertex="1">
          <mxGeometry y="92" width="270" height="40" as="geometry" />
        </mxCell>
        <mxCell id="JY4HNiA_IuTMcJkgVd3S-32" value="BankAuthentiactionService" style="swimlane;fontStyle=1;align=center;verticalAlign=top;childLayout=stackLayout;horizontal=1;startSize=26;horizontalStack=0;resizeParent=1;resizeParentMax=0;resizeLast=0;collapsible=1;marginBottom=0;whiteSpace=wrap;html=1;" parent="WIyWlLk6GJQsqaUBKTNV-1" vertex="1">
          <mxGeometry x="590" y="720" width="190" height="86" as="geometry" />
        </mxCell>
        <mxCell id="JY4HNiA_IuTMcJkgVd3S-33" value="+ field: type" style="text;strokeColor=none;fillColor=none;align=left;verticalAlign=top;spacingLeft=4;spacingRight=4;overflow=hidden;rotatable=0;points=[[0,0.5],[1,0.5]];portConstraint=eastwest;whiteSpace=wrap;html=1;" parent="JY4HNiA_IuTMcJkgVd3S-32" vertex="1">
          <mxGeometry y="26" width="190" height="26" as="geometry" />
        </mxCell>
        <mxCell id="JY4HNiA_IuTMcJkgVd3S-34" value="" style="line;strokeWidth=1;fillColor=none;align=left;verticalAlign=middle;spacingTop=-1;spacingLeft=3;spacingRight=3;rotatable=0;labelPosition=right;points=[];portConstraint=eastwest;strokeColor=inherit;" parent="JY4HNiA_IuTMcJkgVd3S-32" vertex="1">
          <mxGeometry y="52" width="190" height="8" as="geometry" />
        </mxCell>
        <mxCell id="JY4HNiA_IuTMcJkgVd3S-35" value="+GetAccountType();AccountType" style="text;strokeColor=none;fillColor=none;align=left;verticalAlign=top;spacingLeft=4;spacingRight=4;overflow=hidden;rotatable=0;points=[[0,0.5],[1,0.5]];portConstraint=eastwest;whiteSpace=wrap;html=1;" parent="JY4HNiA_IuTMcJkgVd3S-32" vertex="1">
          <mxGeometry y="60" width="190" height="26" as="geometry" />
        </mxCell>
        <mxCell id="JY4HNiA_IuTMcJkgVd3S-36" value="WalletAuthenticationService" style="swimlane;fontStyle=1;align=center;verticalAlign=top;childLayout=stackLayout;horizontal=1;startSize=26;horizontalStack=0;resizeParent=1;resizeParentMax=0;resizeLast=0;collapsible=1;marginBottom=0;whiteSpace=wrap;html=1;" parent="WIyWlLk6GJQsqaUBKTNV-1" vertex="1">
          <mxGeometry x="827" y="720" width="193" height="86" as="geometry" />
        </mxCell>
        <mxCell id="JY4HNiA_IuTMcJkgVd3S-37" value="+ field: type" style="text;strokeColor=none;fillColor=none;align=left;verticalAlign=top;spacingLeft=4;spacingRight=4;overflow=hidden;rotatable=0;points=[[0,0.5],[1,0.5]];portConstraint=eastwest;whiteSpace=wrap;html=1;" parent="JY4HNiA_IuTMcJkgVd3S-36" vertex="1">
          <mxGeometry y="26" width="193" height="26" as="geometry" />
        </mxCell>
        <mxCell id="JY4HNiA_IuTMcJkgVd3S-38" value="" style="line;strokeWidth=1;fillColor=none;align=left;verticalAlign=middle;spacingTop=-1;spacingLeft=3;spacingRight=3;rotatable=0;labelPosition=right;points=[];portConstraint=eastwest;strokeColor=inherit;" parent="JY4HNiA_IuTMcJkgVd3S-36" vertex="1">
          <mxGeometry y="52" width="193" height="8" as="geometry" />
        </mxCell>
        <mxCell id="JY4HNiA_IuTMcJkgVd3S-39" value="+GetAccountType();AccountType" style="text;strokeColor=none;fillColor=none;align=left;verticalAlign=top;spacingLeft=4;spacingRight=4;overflow=hidden;rotatable=0;points=[[0,0.5],[1,0.5]];portConstraint=eastwest;whiteSpace=wrap;html=1;" parent="JY4HNiA_IuTMcJkgVd3S-36" vertex="1">
          <mxGeometry y="60" width="193" height="26" as="geometry" />
        </mxCell>
        <mxCell id="JY4HNiA_IuTMcJkgVd3S-44" value="&lt;p style=&quot;margin:0px;margin-top:4px;text-align:center;&quot;&gt;&lt;i&gt;&amp;lt;&amp;lt;Interface&amp;gt;&amp;gt;&lt;/i&gt;&lt;br&gt;&lt;b&gt;IExternalAccountService&lt;/b&gt;&lt;/p&gt;&lt;hr size=&quot;1&quot;&gt;&lt;p style=&quot;margin:0px;margin-left:4px;&quot;&gt;+ field1: Type&lt;br&gt;+ field2: Type&lt;/p&gt;&lt;hr size=&quot;1&quot;&gt;&lt;p style=&quot;margin:0px;margin-left:4px;&quot;&gt;+ &lt;i&gt;GetAccount(string accountN);string&lt;/i&gt;&lt;br&gt;+ &lt;i&gt;GetBalance();decimal&lt;/i&gt;&lt;/p&gt;" style="verticalAlign=top;align=left;overflow=fill;fontSize=12;fontFamily=Helvetica;html=1;whiteSpace=wrap;" parent="WIyWlLk6GJQsqaUBKTNV-1" vertex="1">
          <mxGeometry x="700" y="1000" width="210" height="140" as="geometry" />
        </mxCell>
        <mxCell id="JY4HNiA_IuTMcJkgVd3S-45" value="&lt;p style=&quot;margin:0px;margin-top:4px;text-align:center;&quot;&gt;&lt;i&gt;&amp;lt;&amp;lt;Interface&amp;gt;&amp;gt;&lt;/i&gt;&lt;br&gt;&lt;b&gt;ITransferStrategy&lt;/b&gt;&lt;/p&gt;&lt;hr size=&quot;1&quot;&gt;&lt;p style=&quot;margin:0px;margin-left:4px;&quot;&gt;+ field1: Type&lt;br&gt;+ field2: Type&lt;/p&gt;&lt;hr size=&quot;1&quot;&gt;&lt;p style=&quot;margin:0px;margin-left:4px;&quot;&gt;+ &lt;i&gt;TransferAmount(string toMobileNumber,decimal amount);bool&lt;/i&gt;&lt;br&gt;&lt;/p&gt;" style="verticalAlign=top;align=left;overflow=fill;fontSize=12;fontFamily=Helvetica;html=1;whiteSpace=wrap;" parent="WIyWlLk6GJQsqaUBKTNV-1" vertex="1">
          <mxGeometry x="980" y="995" width="210" height="130" as="geometry" />
        </mxCell>
        <mxCell id="JY4HNiA_IuTMcJkgVd3S-50" value="TransferToBankStrategy" style="swimlane;fontStyle=1;align=center;verticalAlign=top;childLayout=stackLayout;horizontal=1;startSize=26;horizontalStack=0;resizeParent=1;resizeParentMax=0;resizeLast=0;collapsible=1;marginBottom=0;whiteSpace=wrap;html=1;" parent="WIyWlLk6GJQsqaUBKTNV-1" vertex="1">
          <mxGeometry x="790" y="1240" width="270" height="120" as="geometry" />
        </mxCell>
        <mxCell id="JY4HNiA_IuTMcJkgVd3S-51" value="externalAccountService:IExternalAccountService" style="text;strokeColor=none;fillColor=none;align=left;verticalAlign=top;spacingLeft=4;spacingRight=4;overflow=hidden;rotatable=0;points=[[0,0.5],[1,0.5]];portConstraint=eastwest;whiteSpace=wrap;html=1;" parent="JY4HNiA_IuTMcJkgVd3S-50" vertex="1">
          <mxGeometry y="26" width="270" height="26" as="geometry" />
        </mxCell>
        <mxCell id="JY4HNiA_IuTMcJkgVd3S-52" value="" style="line;strokeWidth=1;fillColor=none;align=left;verticalAlign=middle;spacingTop=-1;spacingLeft=3;spacingRight=3;rotatable=0;labelPosition=right;points=[];portConstraint=eastwest;strokeColor=inherit;" parent="JY4HNiA_IuTMcJkgVd3S-50" vertex="1">
          <mxGeometry y="52" width="270" height="8" as="geometry" />
        </mxCell>
        <mxCell id="JY4HNiA_IuTMcJkgVd3S-53" value="+ TransferAmount(string toMobileNumber,decimal amount );bool" style="text;strokeColor=none;fillColor=none;align=left;verticalAlign=top;spacingLeft=4;spacingRight=4;overflow=hidden;rotatable=0;points=[[0,0.5],[1,0.5]];portConstraint=eastwest;whiteSpace=wrap;html=1;" parent="JY4HNiA_IuTMcJkgVd3S-50" vertex="1">
          <mxGeometry y="60" width="270" height="60" as="geometry" />
        </mxCell>
        <mxCell id="JY4HNiA_IuTMcJkgVd3S-54" value="TransferToWalletStrategy" style="swimlane;fontStyle=1;align=center;verticalAlign=top;childLayout=stackLayout;horizontal=1;startSize=26;horizontalStack=0;resizeParent=1;resizeParentMax=0;resizeLast=0;collapsible=1;marginBottom=0;whiteSpace=wrap;html=1;" parent="WIyWlLk6GJQsqaUBKTNV-1" vertex="1">
          <mxGeometry x="1081" y="1240" width="280" height="120" as="geometry" />
        </mxCell>
        <mxCell id="JY4HNiA_IuTMcJkgVd3S-55" value="externalAccountService:IExternalAccountService" style="text;strokeColor=none;fillColor=none;align=left;verticalAlign=top;spacingLeft=4;spacingRight=4;overflow=hidden;rotatable=0;points=[[0,0.5],[1,0.5]];portConstraint=eastwest;whiteSpace=wrap;html=1;" parent="JY4HNiA_IuTMcJkgVd3S-54" vertex="1">
          <mxGeometry y="26" width="280" height="26" as="geometry" />
        </mxCell>
        <mxCell id="JY4HNiA_IuTMcJkgVd3S-56" value="" style="line;strokeWidth=1;fillColor=none;align=left;verticalAlign=middle;spacingTop=-1;spacingLeft=3;spacingRight=3;rotatable=0;labelPosition=right;points=[];portConstraint=eastwest;strokeColor=inherit;" parent="JY4HNiA_IuTMcJkgVd3S-54" vertex="1">
          <mxGeometry y="52" width="280" height="8" as="geometry" />
        </mxCell>
        <mxCell id="JY4HNiA_IuTMcJkgVd3S-57" value="+ TransferAmount(string toMobileNumber,decimal amount );bool" style="text;strokeColor=none;fillColor=none;align=left;verticalAlign=top;spacingLeft=4;spacingRight=4;overflow=hidden;rotatable=0;points=[[0,0.5],[1,0.5]];portConstraint=eastwest;whiteSpace=wrap;html=1;" parent="JY4HNiA_IuTMcJkgVd3S-54" vertex="1">
          <mxGeometry y="60" width="280" height="60" as="geometry" />
        </mxCell>
        <mxCell id="JY4HNiA_IuTMcJkgVd3S-58" value="TransferToInstapayStrategy" style="swimlane;fontStyle=1;align=center;verticalAlign=top;childLayout=stackLayout;horizontal=1;startSize=26;horizontalStack=0;resizeParent=1;resizeParentMax=0;resizeLast=0;collapsible=1;marginBottom=0;whiteSpace=wrap;html=1;" parent="WIyWlLk6GJQsqaUBKTNV-1" vertex="1">
          <mxGeometry x="1384" y="1240" width="270" height="120" as="geometry" />
        </mxCell>
        <mxCell id="JY4HNiA_IuTMcJkgVd3S-59" value="externalAccountService:IExternalAccountService" style="text;strokeColor=none;fillColor=none;align=left;verticalAlign=top;spacingLeft=4;spacingRight=4;overflow=hidden;rotatable=0;points=[[0,0.5],[1,0.5]];portConstraint=eastwest;whiteSpace=wrap;html=1;" parent="JY4HNiA_IuTMcJkgVd3S-58" vertex="1">
          <mxGeometry y="26" width="270" height="26" as="geometry" />
        </mxCell>
        <mxCell id="JY4HNiA_IuTMcJkgVd3S-60" value="" style="line;strokeWidth=1;fillColor=none;align=left;verticalAlign=middle;spacingTop=-1;spacingLeft=3;spacingRight=3;rotatable=0;labelPosition=right;points=[];portConstraint=eastwest;strokeColor=inherit;" parent="JY4HNiA_IuTMcJkgVd3S-58" vertex="1">
          <mxGeometry y="52" width="270" height="8" as="geometry" />
        </mxCell>
        <mxCell id="JY4HNiA_IuTMcJkgVd3S-61" value="+ TransferAmount(string toMobileNumber,decimal amount );bool" style="text;strokeColor=none;fillColor=none;align=left;verticalAlign=top;spacingLeft=4;spacingRight=4;overflow=hidden;rotatable=0;points=[[0,0.5],[1,0.5]];portConstraint=eastwest;whiteSpace=wrap;html=1;" parent="JY4HNiA_IuTMcJkgVd3S-58" vertex="1">
          <mxGeometry y="60" width="270" height="60" as="geometry" />
        </mxCell>
        <mxCell id="JY4HNiA_IuTMcJkgVd3S-62" value="ApplicationService" style="swimlane;fontStyle=1;align=center;verticalAlign=top;childLayout=stackLayout;horizontal=1;startSize=26;horizontalStack=0;resizeParent=1;resizeParentMax=0;resizeLast=0;collapsible=1;marginBottom=0;whiteSpace=wrap;html=1;" parent="WIyWlLk6GJQsqaUBKTNV-1" vertex="1">
          <mxGeometry x="1130" y="806" width="530" height="140" as="geometry" />
        </mxCell>
        <mxCell id="JY4HNiA_IuTMcJkgVd3S-63" value="transferStrategy:ITransferStrategy&lt;br&gt;billPaymentStraegy:IBillPaymentStrategy" style="text;strokeColor=none;fillColor=none;align=left;verticalAlign=top;spacingLeft=4;spacingRight=4;overflow=hidden;rotatable=0;points=[[0,0.5],[1,0.5]];portConstraint=eastwest;whiteSpace=wrap;html=1;" parent="JY4HNiA_IuTMcJkgVd3S-62" vertex="1">
          <mxGeometry y="26" width="530" height="44" as="geometry" />
        </mxCell>
        <mxCell id="JY4HNiA_IuTMcJkgVd3S-64" value="" style="line;strokeWidth=1;fillColor=none;align=left;verticalAlign=middle;spacingTop=-1;spacingLeft=3;spacingRight=3;rotatable=0;labelPosition=right;points=[];portConstraint=eastwest;strokeColor=inherit;" parent="JY4HNiA_IuTMcJkgVd3S-62" vertex="1">
          <mxGeometry y="70" width="530" height="8" as="geometry" />
        </mxCell>
        <mxCell id="JY4HNiA_IuTMcJkgVd3S-65" value="+ InquireBalance();decimal&lt;br&gt;+TransferAmount(string toMobileNumber,decimal amount,ITransferStratgey transferStratgey);bool&lt;br&gt;PayBill&lt;span style=&quot;color: rgb(0, 153, 0); font-family: monospace; background-color: rgb(248, 248, 248);&quot; class=&quot;br0&quot;&gt;(&lt;/span&gt;&lt;span style=&quot;color: rgb(0, 0, 102); font-family: monospace; background-color: rgb(248, 248, 248);&quot;&gt;Bill bill&lt;/span&gt;&lt;span style=&quot;color: rgb(51, 153, 51); font-family: monospace; background-color: rgb(248, 248, 248);&quot; class=&quot;sy0&quot;&gt;,&lt;/span&gt;&lt;span style=&quot;color: rgb(0, 0, 102); font-family: monospace; background-color: rgb(248, 248, 248);&quot;&gt; IBillPaymentStrategy paymentStrategy&lt;/span&gt;&lt;span style=&quot;font-family: monospace; background-color: rgb(248, 248, 248);&quot;&gt;)bool&lt;/span&gt;" style="text;strokeColor=none;fillColor=none;align=left;verticalAlign=top;spacingLeft=4;spacingRight=4;overflow=hidden;rotatable=0;points=[[0,0.5],[1,0.5]];portConstraint=eastwest;whiteSpace=wrap;html=1;" parent="JY4HNiA_IuTMcJkgVd3S-62" vertex="1">
          <mxGeometry y="78" width="530" height="62" as="geometry" />
        </mxCell>
        <mxCell id="JY4HNiA_IuTMcJkgVd3S-66" value="&lt;p style=&quot;margin:0px;margin-top:4px;text-align:center;&quot;&gt;&lt;i&gt;&amp;lt;&amp;lt;Interface&amp;gt;&amp;gt;&lt;/i&gt;&lt;br&gt;&lt;b&gt;IUserRepository&lt;/b&gt;&lt;/p&gt;&lt;hr size=&quot;1&quot;&gt;&lt;p style=&quot;margin:0px;margin-left:4px;&quot;&gt;+ field1: Type&lt;br&gt;+ field2: Type&lt;/p&gt;&lt;hr size=&quot;1&quot;&gt;&lt;p style=&quot;margin:0px;margin-left:4px;&quot;&gt;+ &lt;i&gt;AddUser(User user);&lt;/i&gt;&lt;br&gt;+ &lt;i&gt;GetByUsername(string userName);User&lt;/i&gt;&lt;/p&gt;" style="verticalAlign=top;align=left;overflow=fill;fontSize=12;fontFamily=Helvetica;html=1;whiteSpace=wrap;" parent="WIyWlLk6GJQsqaUBKTNV-1" vertex="1">
          <mxGeometry x="920" y="280" width="190" height="140" as="geometry" />
        </mxCell>
        <mxCell id="JY4HNiA_IuTMcJkgVd3S-67" value="InMemoryUserRepository" style="swimlane;fontStyle=1;align=center;verticalAlign=top;childLayout=stackLayout;horizontal=1;startSize=26;horizontalStack=0;resizeParent=1;resizeParentMax=0;resizeLast=0;collapsible=1;marginBottom=0;whiteSpace=wrap;html=1;" parent="WIyWlLk6GJQsqaUBKTNV-1" vertex="1">
          <mxGeometry x="960" y="480" width="160" height="120" as="geometry" />
        </mxCell>
        <mxCell id="JY4HNiA_IuTMcJkgVd3S-68" value="Users[User];" style="text;strokeColor=none;fillColor=none;align=left;verticalAlign=top;spacingLeft=4;spacingRight=4;overflow=hidden;rotatable=0;points=[[0,0.5],[1,0.5]];portConstraint=eastwest;whiteSpace=wrap;html=1;" parent="JY4HNiA_IuTMcJkgVd3S-67" vertex="1">
          <mxGeometry y="26" width="160" height="26" as="geometry" />
        </mxCell>
        <mxCell id="JY4HNiA_IuTMcJkgVd3S-69" value="" style="line;strokeWidth=1;fillColor=none;align=left;verticalAlign=middle;spacingTop=-1;spacingLeft=3;spacingRight=3;rotatable=0;labelPosition=right;points=[];portConstraint=eastwest;strokeColor=inherit;" parent="JY4HNiA_IuTMcJkgVd3S-67" vertex="1">
          <mxGeometry y="52" width="160" height="8" as="geometry" />
        </mxCell>
        <mxCell id="JY4HNiA_IuTMcJkgVd3S-70" value="+ AddUser(User user);&lt;br&gt;+GetByUsername(string userName);User" style="text;strokeColor=none;fillColor=none;align=left;verticalAlign=top;spacingLeft=4;spacingRight=4;overflow=hidden;rotatable=0;points=[[0,0.5],[1,0.5]];portConstraint=eastwest;whiteSpace=wrap;html=1;" parent="JY4HNiA_IuTMcJkgVd3S-67" vertex="1">
          <mxGeometry y="60" width="160" height="60" as="geometry" />
        </mxCell>
        <mxCell id="JY4HNiA_IuTMcJkgVd3S-71" value="AccountType" style="swimlane;fontStyle=1;align=center;verticalAlign=top;childLayout=stackLayout;horizontal=1;startSize=26;horizontalStack=0;resizeParent=1;resizeParentMax=0;resizeLast=0;collapsible=1;marginBottom=0;whiteSpace=wrap;html=1;" parent="WIyWlLk6GJQsqaUBKTNV-1" vertex="1">
          <mxGeometry x="1241" y="320" width="160" height="94" as="geometry" />
        </mxCell>
        <mxCell id="JY4HNiA_IuTMcJkgVd3S-72" value="BankAccount:string&lt;br&gt;WalletAccount:string" style="text;strokeColor=none;fillColor=none;align=left;verticalAlign=top;spacingLeft=4;spacingRight=4;overflow=hidden;rotatable=0;points=[[0,0.5],[1,0.5]];portConstraint=eastwest;whiteSpace=wrap;html=1;" parent="JY4HNiA_IuTMcJkgVd3S-71" vertex="1">
          <mxGeometry y="26" width="160" height="34" as="geometry" />
        </mxCell>
        <mxCell id="JY4HNiA_IuTMcJkgVd3S-73" value="" style="line;strokeWidth=1;fillColor=none;align=left;verticalAlign=middle;spacingTop=-1;spacingLeft=3;spacingRight=3;rotatable=0;labelPosition=right;points=[];portConstraint=eastwest;strokeColor=inherit;" parent="JY4HNiA_IuTMcJkgVd3S-71" vertex="1">
          <mxGeometry y="60" width="160" height="8" as="geometry" />
        </mxCell>
        <mxCell id="JY4HNiA_IuTMcJkgVd3S-74" value="+ method(type): type" style="text;strokeColor=none;fillColor=none;align=left;verticalAlign=top;spacingLeft=4;spacingRight=4;overflow=hidden;rotatable=0;points=[[0,0.5],[1,0.5]];portConstraint=eastwest;whiteSpace=wrap;html=1;" parent="JY4HNiA_IuTMcJkgVd3S-71" vertex="1">
          <mxGeometry y="68" width="160" height="26" as="geometry" />
        </mxCell>
        <mxCell id="JY4HNiA_IuTMcJkgVd3S-75" value="User" style="swimlane;fontStyle=1;align=center;verticalAlign=top;childLayout=stackLayout;horizontal=1;startSize=26;horizontalStack=0;resizeParent=1;resizeParentMax=0;resizeLast=0;collapsible=1;marginBottom=0;whiteSpace=wrap;html=1;" parent="WIyWlLk6GJQsqaUBKTNV-1" vertex="1">
          <mxGeometry x="1440" y="320" width="160" height="144" as="geometry" />
        </mxCell>
        <mxCell id="JY4HNiA_IuTMcJkgVd3S-76" value="AccountType:string&lt;br&gt;Balance:double&lt;br&gt;MobileNumber:string&lt;br&gt;Password:string&lt;br&gt;UserName:string" style="text;strokeColor=none;fillColor=none;align=left;verticalAlign=top;spacingLeft=4;spacingRight=4;overflow=hidden;rotatable=0;points=[[0,0.5],[1,0.5]];portConstraint=eastwest;whiteSpace=wrap;html=1;" parent="JY4HNiA_IuTMcJkgVd3S-75" vertex="1">
          <mxGeometry y="26" width="160" height="84" as="geometry" />
        </mxCell>
        <mxCell id="JY4HNiA_IuTMcJkgVd3S-77" value="" style="line;strokeWidth=1;fillColor=none;align=left;verticalAlign=middle;spacingTop=-1;spacingLeft=3;spacingRight=3;rotatable=0;labelPosition=right;points=[];portConstraint=eastwest;strokeColor=inherit;" parent="JY4HNiA_IuTMcJkgVd3S-75" vertex="1">
          <mxGeometry y="110" width="160" height="8" as="geometry" />
        </mxCell>
        <mxCell id="JY4HNiA_IuTMcJkgVd3S-78" value="+ method(type): type" style="text;strokeColor=none;fillColor=none;align=left;verticalAlign=top;spacingLeft=4;spacingRight=4;overflow=hidden;rotatable=0;points=[[0,0.5],[1,0.5]];portConstraint=eastwest;whiteSpace=wrap;html=1;" parent="JY4HNiA_IuTMcJkgVd3S-75" vertex="1">
          <mxGeometry y="118" width="160" height="26" as="geometry" />
        </mxCell>
        <mxCell id="JY4HNiA_IuTMcJkgVd3S-79" value="Extends" style="endArrow=block;endSize=16;endFill=0;html=1;rounded=0;entryX=0.198;entryY=1.03;entryDx=0;entryDy=0;entryPerimeter=0;exitX=0.868;exitY=-0.037;exitDx=0;exitDy=0;exitPerimeter=0;" parent="WIyWlLk6GJQsqaUBKTNV-1" source="JY4HNiA_IuTMcJkgVd3S-6" target="JY4HNiA_IuTMcJkgVd3S-5" edge="1">
          <mxGeometry width="160" relative="1" as="geometry">
            <mxPoint x="-160" y="530" as="sourcePoint" />
            <mxPoint y="530" as="targetPoint" />
          </mxGeometry>
        </mxCell>
        <mxCell id="JY4HNiA_IuTMcJkgVd3S-80" value="Extends" style="endArrow=block;endSize=16;endFill=0;html=1;rounded=0;" parent="WIyWlLk6GJQsqaUBKTNV-1" edge="1">
          <mxGeometry width="160" relative="1" as="geometry">
            <mxPoint x="120" y="840" as="sourcePoint" />
            <mxPoint x="168" y="744" as="targetPoint" />
            <Array as="points">
              <mxPoint x="120" y="804" />
              <mxPoint x="168" y="804" />
            </Array>
          </mxGeometry>
        </mxCell>
        <mxCell id="JY4HNiA_IuTMcJkgVd3S-81" value="Extends" style="endArrow=block;endSize=16;endFill=0;html=1;rounded=0;entryX=0.814;entryY=0.985;entryDx=0;entryDy=0;entryPerimeter=0;exitX=0.482;exitY=0;exitDx=0;exitDy=0;exitPerimeter=0;" parent="WIyWlLk6GJQsqaUBKTNV-1" source="JY4HNiA_IuTMcJkgVd3S-24" target="JY4HNiA_IuTMcJkgVd3S-19" edge="1">
          <mxGeometry width="160" relative="1" as="geometry">
            <mxPoint x="400" y="750" as="sourcePoint" />
            <mxPoint x="420" y="530" as="targetPoint" />
            <Array as="points">
              <mxPoint x="399" y="800" />
              <mxPoint x="320" y="800" />
            </Array>
          </mxGeometry>
        </mxCell>
        <mxCell id="JY4HNiA_IuTMcJkgVd3S-82" value="Extends" style="endArrow=block;endSize=16;endFill=0;html=1;rounded=0;exitX=0.394;exitY=1.061;exitDx=0;exitDy=0;exitPerimeter=0;" parent="WIyWlLk6GJQsqaUBKTNV-1" source="JY4HNiA_IuTMcJkgVd3S-23" edge="1">
          <mxGeometry width="160" relative="1" as="geometry">
            <mxPoint x="200" y="880" as="sourcePoint" />
            <mxPoint x="700" y="1080" as="targetPoint" />
            <Array as="points">
              <mxPoint y="1080" />
              <mxPoint x="200" y="1078" />
            </Array>
          </mxGeometry>
        </mxCell>
        <mxCell id="JY4HNiA_IuTMcJkgVd3S-83" value="Extends" style="endArrow=block;endSize=16;endFill=0;html=1;rounded=0;entryX=0;entryY=0;entryDx=0;entryDy=0;exitX=0.602;exitY=1.092;exitDx=0;exitDy=0;exitPerimeter=0;" parent="WIyWlLk6GJQsqaUBKTNV-1" source="JY4HNiA_IuTMcJkgVd3S-27" target="JY4HNiA_IuTMcJkgVd3S-44" edge="1">
          <mxGeometry width="160" relative="1" as="geometry">
            <mxPoint x="460" y="680" as="sourcePoint" />
            <mxPoint x="620" y="680" as="targetPoint" />
            <Array as="points">
              <mxPoint x="440" y="1000" />
            </Array>
          </mxGeometry>
        </mxCell>
        <mxCell id="JY4HNiA_IuTMcJkgVd3S-84" value="Extends" style="endArrow=block;endSize=16;endFill=0;html=1;rounded=0;exitX=0.645;exitY=0.012;exitDx=0;exitDy=0;exitPerimeter=0;" parent="WIyWlLk6GJQsqaUBKTNV-1" source="JY4HNiA_IuTMcJkgVd3S-10" edge="1">
          <mxGeometry width="160" relative="1" as="geometry">
            <mxPoint x="100" y="680" as="sourcePoint" />
            <mxPoint x="240" y="360" as="targetPoint" />
            <Array as="points">
              <mxPoint x="121" y="360" />
            </Array>
          </mxGeometry>
        </mxCell>
        <mxCell id="JY4HNiA_IuTMcJkgVd3S-87" value="Extends" style="endArrow=block;endSize=16;endFill=0;html=1;rounded=0;exitX=0.808;exitY=-0.021;exitDx=0;exitDy=0;exitPerimeter=0;entryX=0.14;entryY=1.004;entryDx=0;entryDy=0;entryPerimeter=0;" parent="WIyWlLk6GJQsqaUBKTNV-1" source="JY4HNiA_IuTMcJkgVd3S-50" target="JY4HNiA_IuTMcJkgVd3S-45" edge="1">
          <mxGeometry width="160" relative="1" as="geometry">
            <mxPoint x="950" y="1000" as="sourcePoint" />
            <mxPoint x="1110" y="1000" as="targetPoint" />
          </mxGeometry>
        </mxCell>
        <mxCell id="JY4HNiA_IuTMcJkgVd3S-88" value="Extends" style="endArrow=block;endSize=16;endFill=0;html=1;rounded=0;exitX=0.159;exitY=-0.012;exitDx=0;exitDy=0;exitPerimeter=0;" parent="WIyWlLk6GJQsqaUBKTNV-1" source="JY4HNiA_IuTMcJkgVd3S-54" edge="1">
          <mxGeometry width="160" relative="1" as="geometry">
            <mxPoint x="950" y="1000" as="sourcePoint" />
            <mxPoint x="1123" y="1120" as="targetPoint" />
          </mxGeometry>
        </mxCell>
        <mxCell id="JY4HNiA_IuTMcJkgVd3S-89" value="Extends" style="endArrow=block;endSize=16;endFill=0;html=1;rounded=0;exitX=0.25;exitY=0;exitDx=0;exitDy=0;entryX=1.013;entryY=0.656;entryDx=0;entryDy=0;entryPerimeter=0;" parent="WIyWlLk6GJQsqaUBKTNV-1" source="JY4HNiA_IuTMcJkgVd3S-58" target="JY4HNiA_IuTMcJkgVd3S-45" edge="1">
          <mxGeometry width="160" relative="1" as="geometry">
            <mxPoint x="1090" y="1000" as="sourcePoint" />
            <mxPoint x="1250" y="1000" as="targetPoint" />
            <Array as="points">
              <mxPoint x="1452" y="1160" />
              <mxPoint x="1280" y="1160" />
              <mxPoint x="1280" y="1079" />
            </Array>
          </mxGeometry>
        </mxCell>
        <mxCell id="JY4HNiA_IuTMcJkgVd3S-90" value="" style="endArrow=diamondThin;endFill=0;endSize=24;html=1;rounded=0;entryX=0.192;entryY=-0.007;entryDx=0;entryDy=0;exitX=0.846;exitY=1.03;exitDx=0;exitDy=0;exitPerimeter=0;entryPerimeter=0;" parent="WIyWlLk6GJQsqaUBKTNV-1" source="JY4HNiA_IuTMcJkgVd3S-5" target="JY4HNiA_IuTMcJkgVd3S-10" edge="1">
          <mxGeometry width="160" relative="1" as="geometry">
            <mxPoint x="160" y="450" as="sourcePoint" />
            <mxPoint x="320" y="450" as="targetPoint" />
          </mxGeometry>
        </mxCell>
        <mxCell id="JY4HNiA_IuTMcJkgVd3S-91" value="" style="endArrow=diamondThin;endFill=0;endSize=24;html=1;rounded=0;entryX=-0.002;entryY=0.188;entryDx=0;entryDy=0;entryPerimeter=0;" parent="WIyWlLk6GJQsqaUBKTNV-1" target="JY4HNiA_IuTMcJkgVd3S-18" edge="1">
          <mxGeometry width="160" relative="1" as="geometry">
            <mxPoint x="430" y="360" as="sourcePoint" />
            <mxPoint x="520" y="450" as="targetPoint" />
          </mxGeometry>
        </mxCell>
        <mxCell id="JY4HNiA_IuTMcJkgVd3S-92" value="" style="endArrow=diamondThin;endFill=0;endSize=24;html=1;rounded=0;entryX=0.134;entryY=1.066;entryDx=0;entryDy=0;entryPerimeter=0;exitX=1.013;exitY=0.413;exitDx=0;exitDy=0;exitPerimeter=0;" parent="WIyWlLk6GJQsqaUBKTNV-1" source="JY4HNiA_IuTMcJkgVd3S-19" target="JY4HNiA_IuTMcJkgVd3S-18" edge="1">
          <mxGeometry width="160" relative="1" as="geometry">
            <mxPoint x="360" y="450" as="sourcePoint" />
            <mxPoint x="520" y="450" as="targetPoint" />
            <Array as="points">
              <mxPoint x="560" y="680" />
            </Array>
          </mxGeometry>
        </mxCell>
        <mxCell id="JY4HNiA_IuTMcJkgVd3S-93" value="" style="endArrow=diamondThin;endFill=0;endSize=24;html=1;rounded=0;exitX=0.528;exitY=1.014;exitDx=0;exitDy=0;exitPerimeter=0;" parent="WIyWlLk6GJQsqaUBKTNV-1" source="JY4HNiA_IuTMcJkgVd3S-18" edge="1">
          <mxGeometry width="160" relative="1" as="geometry">
            <mxPoint x="680.0000000000003" y="429.246" as="sourcePoint" />
            <mxPoint x="682" y="510" as="targetPoint" />
          </mxGeometry>
        </mxCell>
        <mxCell id="JY4HNiA_IuTMcJkgVd3S-94" value="" style="endArrow=diamondThin;endFill=0;endSize=24;html=1;rounded=0;" parent="WIyWlLk6GJQsqaUBKTNV-1" edge="1">
          <mxGeometry width="160" relative="1" as="geometry">
            <mxPoint x="920" y="360" as="sourcePoint" />
            <mxPoint x="880" y="510" as="targetPoint" />
            <Array as="points">
              <mxPoint x="880" y="360" />
            </Array>
          </mxGeometry>
        </mxCell>
        <mxCell id="JY4HNiA_IuTMcJkgVd3S-95" value="" style="endArrow=diamondThin;endFill=0;endSize=24;html=1;rounded=0;entryX=0.579;entryY=1.137;entryDx=0;entryDy=0;entryPerimeter=0;exitX=0.5;exitY=0;exitDx=0;exitDy=0;" parent="WIyWlLk6GJQsqaUBKTNV-1" source="JY4HNiA_IuTMcJkgVd3S-44" target="JY4HNiA_IuTMcJkgVd3S-31" edge="1">
          <mxGeometry width="160" relative="1" as="geometry">
            <mxPoint x="710" y="690" as="sourcePoint" />
            <mxPoint x="870" y="690" as="targetPoint" />
          </mxGeometry>
        </mxCell>
        <mxCell id="JY4HNiA_IuTMcJkgVd3S-96" value="" style="endArrow=diamondThin;endFill=0;endSize=24;html=1;rounded=0;" parent="WIyWlLk6GJQsqaUBKTNV-1" edge="1">
          <mxGeometry width="160" relative="1" as="geometry">
            <mxPoint x="759" y="1130" as="sourcePoint" />
            <mxPoint x="790" y="1279" as="targetPoint" />
            <Array as="points">
              <mxPoint x="759" y="1279" />
            </Array>
          </mxGeometry>
        </mxCell>
        <mxCell id="JY4HNiA_IuTMcJkgVd3S-97" value="" style="endArrow=diamondThin;endFill=0;endSize=24;html=1;rounded=0;exitX=0.086;exitY=1.019;exitDx=0;exitDy=0;exitPerimeter=0;" parent="WIyWlLk6GJQsqaUBKTNV-1" source="JY4HNiA_IuTMcJkgVd3S-44" edge="1">
          <mxGeometry width="160" relative="1" as="geometry">
            <mxPoint x="940" y="1400" as="sourcePoint" />
            <mxPoint x="1120" y="1360" as="targetPoint" />
            <Array as="points">
              <mxPoint x="716" y="1400" />
              <mxPoint x="1120" y="1400" />
            </Array>
          </mxGeometry>
        </mxCell>
        <mxCell id="JY4HNiA_IuTMcJkgVd3S-98" value="" style="endArrow=diamondThin;endFill=0;endSize=24;html=1;rounded=0;" parent="WIyWlLk6GJQsqaUBKTNV-1" edge="1">
          <mxGeometry width="160" relative="1" as="geometry">
            <mxPoint x="1080" y="990" as="sourcePoint" />
            <mxPoint x="1130" y="919" as="targetPoint" />
            <Array as="points">
              <mxPoint x="1080" y="920" />
              <mxPoint x="1120" y="918.75" />
            </Array>
          </mxGeometry>
        </mxCell>
        <mxCell id="JY4HNiA_IuTMcJkgVd3S-99" value="Extends" style="endArrow=block;endSize=16;endFill=0;html=1;rounded=0;exitX=0.5;exitY=0;exitDx=0;exitDy=0;" parent="WIyWlLk6GJQsqaUBKTNV-1" source="JY4HNiA_IuTMcJkgVd3S-67" edge="1">
          <mxGeometry width="160" relative="1" as="geometry">
            <mxPoint x="890" y="510" as="sourcePoint" />
            <mxPoint x="1040" y="420" as="targetPoint" />
          </mxGeometry>
        </mxCell>
        <mxCell id="JY4HNiA_IuTMcJkgVd3S-100" value="" style="endArrow=diamondThin;endFill=0;endSize=24;html=1;rounded=0;entryX=1;entryY=0.5;entryDx=0;entryDy=0;" parent="WIyWlLk6GJQsqaUBKTNV-1" target="JY4HNiA_IuTMcJkgVd3S-61" edge="1">
          <mxGeometry width="160" relative="1" as="geometry">
            <mxPoint x="1110" y="360" as="sourcePoint" />
            <mxPoint x="1571.60009765625" y="1290" as="targetPoint" />
            <Array as="points">
              <mxPoint x="1200" y="360" />
              <mxPoint x="1200" y="600" />
              <mxPoint x="1680" y="600" />
              <mxPoint x="1680" y="1330" />
            </Array>
          </mxGeometry>
        </mxCell>
        <mxCell id="JY4HNiA_IuTMcJkgVd3S-101" value="SignInManager" style="swimlane;fontStyle=1;align=center;verticalAlign=top;childLayout=stackLayout;horizontal=1;startSize=26;horizontalStack=0;resizeParent=1;resizeParentMax=0;resizeLast=0;collapsible=1;marginBottom=0;whiteSpace=wrap;html=1;" parent="WIyWlLk6GJQsqaUBKTNV-1" vertex="1">
          <mxGeometry x="920" y="120" width="270" height="104" as="geometry" />
        </mxCell>
        <mxCell id="JY4HNiA_IuTMcJkgVd3S-102" value="userRepository:IUserRepository&lt;br&gt;CurrentLoggedInUser:User" style="text;strokeColor=none;fillColor=none;align=left;verticalAlign=top;spacingLeft=4;spacingRight=4;overflow=hidden;rotatable=0;points=[[0,0.5],[1,0.5]];portConstraint=eastwest;whiteSpace=wrap;html=1;" parent="JY4HNiA_IuTMcJkgVd3S-101" vertex="1">
          <mxGeometry y="26" width="270" height="44" as="geometry" />
        </mxCell>
        <mxCell id="JY4HNiA_IuTMcJkgVd3S-103" value="" style="line;strokeWidth=1;fillColor=none;align=left;verticalAlign=middle;spacingTop=-1;spacingLeft=3;spacingRight=3;rotatable=0;labelPosition=right;points=[];portConstraint=eastwest;strokeColor=inherit;" parent="JY4HNiA_IuTMcJkgVd3S-101" vertex="1">
          <mxGeometry y="70" width="270" height="8" as="geometry" />
        </mxCell>
        <mxCell id="JY4HNiA_IuTMcJkgVd3S-104" value="+SignIn(string userName ,string password);bool" style="text;strokeColor=none;fillColor=none;align=left;verticalAlign=top;spacingLeft=4;spacingRight=4;overflow=hidden;rotatable=0;points=[[0,0.5],[1,0.5]];portConstraint=eastwest;whiteSpace=wrap;html=1;" parent="JY4HNiA_IuTMcJkgVd3S-101" vertex="1">
          <mxGeometry y="78" width="270" height="26" as="geometry" />
        </mxCell>
        <mxCell id="JY4HNiA_IuTMcJkgVd3S-106" value="" style="endArrow=diamondThin;endFill=0;endSize=24;html=1;rounded=0;entryX=0.291;entryY=1.131;entryDx=0;entryDy=0;entryPerimeter=0;exitX=0.402;exitY=0.005;exitDx=0;exitDy=0;exitPerimeter=0;" parent="WIyWlLk6GJQsqaUBKTNV-1" source="JY4HNiA_IuTMcJkgVd3S-66" target="JY4HNiA_IuTMcJkgVd3S-104" edge="1">
          <mxGeometry width="160" relative="1" as="geometry">
            <mxPoint x="1000" y="270" as="sourcePoint" />
            <mxPoint x="1140" y="310" as="targetPoint" />
          </mxGeometry>
        </mxCell>
        <mxCell id="tvM6cYHnkt5RefAv2m_Q-0" value="&lt;p style=&quot;margin:0px;margin-top:4px;text-align:center;&quot;&gt;&lt;i&gt;&amp;lt;&amp;lt;Interface&amp;gt;&amp;gt;&lt;/i&gt;&lt;br&gt;&lt;b&gt;IBillPaymnetStraegy&lt;/b&gt;&lt;/p&gt;&lt;hr size=&quot;1&quot;&gt;&lt;p style=&quot;margin:0px;margin-left:4px;&quot;&gt;+ field1: Type&lt;br&gt;+ field2: Type&lt;/p&gt;&lt;hr size=&quot;1&quot;&gt;&lt;p style=&quot;margin:0px;margin-left:4px;&quot;&gt;+ &lt;i&gt;PayBill(decimal amount);&lt;/i&gt;&lt;br&gt;&lt;/p&gt;" style="verticalAlign=top;align=left;overflow=fill;fontSize=12;fontFamily=Helvetica;html=1;whiteSpace=wrap;" vertex="1" parent="WIyWlLk6GJQsqaUBKTNV-1">
          <mxGeometry x="2010" y="920" width="190" height="120" as="geometry" />
        </mxCell>
        <mxCell id="tvM6cYHnkt5RefAv2m_Q-1" value="ElectricityBillPaymentStrategy" style="swimlane;fontStyle=1;align=center;verticalAlign=top;childLayout=stackLayout;horizontal=1;startSize=26;horizontalStack=0;resizeParent=1;resizeParentMax=0;resizeLast=0;collapsible=1;marginBottom=0;whiteSpace=wrap;html=1;" vertex="1" parent="WIyWlLk6GJQsqaUBKTNV-1">
          <mxGeometry x="1720" y="1120" width="210" height="86" as="geometry" />
        </mxCell>
        <mxCell id="tvM6cYHnkt5RefAv2m_Q-2" value="+ field: type" style="text;strokeColor=none;fillColor=none;align=left;verticalAlign=top;spacingLeft=4;spacingRight=4;overflow=hidden;rotatable=0;points=[[0,0.5],[1,0.5]];portConstraint=eastwest;whiteSpace=wrap;html=1;" vertex="1" parent="tvM6cYHnkt5RefAv2m_Q-1">
          <mxGeometry y="26" width="210" height="26" as="geometry" />
        </mxCell>
        <mxCell id="tvM6cYHnkt5RefAv2m_Q-3" value="" style="line;strokeWidth=1;fillColor=none;align=left;verticalAlign=middle;spacingTop=-1;spacingLeft=3;spacingRight=3;rotatable=0;labelPosition=right;points=[];portConstraint=eastwest;strokeColor=inherit;" vertex="1" parent="tvM6cYHnkt5RefAv2m_Q-1">
          <mxGeometry y="52" width="210" height="8" as="geometry" />
        </mxCell>
        <mxCell id="tvM6cYHnkt5RefAv2m_Q-4" value="+ PayBill(decimal amount);" style="text;strokeColor=none;fillColor=none;align=left;verticalAlign=top;spacingLeft=4;spacingRight=4;overflow=hidden;rotatable=0;points=[[0,0.5],[1,0.5]];portConstraint=eastwest;whiteSpace=wrap;html=1;" vertex="1" parent="tvM6cYHnkt5RefAv2m_Q-1">
          <mxGeometry y="60" width="210" height="26" as="geometry" />
        </mxCell>
        <mxCell id="tvM6cYHnkt5RefAv2m_Q-5" value="WaterBillPaymentStrategy" style="swimlane;fontStyle=1;align=center;verticalAlign=top;childLayout=stackLayout;horizontal=1;startSize=26;horizontalStack=0;resizeParent=1;resizeParentMax=0;resizeLast=0;collapsible=1;marginBottom=0;whiteSpace=wrap;html=1;" vertex="1" parent="WIyWlLk6GJQsqaUBKTNV-1">
          <mxGeometry x="1960" y="1120" width="190" height="86" as="geometry" />
        </mxCell>
        <mxCell id="tvM6cYHnkt5RefAv2m_Q-6" value="+ field: type" style="text;strokeColor=none;fillColor=none;align=left;verticalAlign=top;spacingLeft=4;spacingRight=4;overflow=hidden;rotatable=0;points=[[0,0.5],[1,0.5]];portConstraint=eastwest;whiteSpace=wrap;html=1;" vertex="1" parent="tvM6cYHnkt5RefAv2m_Q-5">
          <mxGeometry y="26" width="190" height="26" as="geometry" />
        </mxCell>
        <mxCell id="tvM6cYHnkt5RefAv2m_Q-7" value="" style="line;strokeWidth=1;fillColor=none;align=left;verticalAlign=middle;spacingTop=-1;spacingLeft=3;spacingRight=3;rotatable=0;labelPosition=right;points=[];portConstraint=eastwest;strokeColor=inherit;" vertex="1" parent="tvM6cYHnkt5RefAv2m_Q-5">
          <mxGeometry y="52" width="190" height="8" as="geometry" />
        </mxCell>
        <mxCell id="tvM6cYHnkt5RefAv2m_Q-8" value="+ PayBill(decimal amount);" style="text;strokeColor=none;fillColor=none;align=left;verticalAlign=top;spacingLeft=4;spacingRight=4;overflow=hidden;rotatable=0;points=[[0,0.5],[1,0.5]];portConstraint=eastwest;whiteSpace=wrap;html=1;" vertex="1" parent="tvM6cYHnkt5RefAv2m_Q-5">
          <mxGeometry y="60" width="190" height="26" as="geometry" />
        </mxCell>
        <mxCell id="tvM6cYHnkt5RefAv2m_Q-9" value="GasBillPaymentStrategy" style="swimlane;fontStyle=1;align=center;verticalAlign=top;childLayout=stackLayout;horizontal=1;startSize=26;horizontalStack=0;resizeParent=1;resizeParentMax=0;resizeLast=0;collapsible=1;marginBottom=0;whiteSpace=wrap;html=1;" vertex="1" parent="WIyWlLk6GJQsqaUBKTNV-1">
          <mxGeometry x="2200" y="1120" width="190" height="86" as="geometry" />
        </mxCell>
        <mxCell id="tvM6cYHnkt5RefAv2m_Q-10" value="+ field: type" style="text;strokeColor=none;fillColor=none;align=left;verticalAlign=top;spacingLeft=4;spacingRight=4;overflow=hidden;rotatable=0;points=[[0,0.5],[1,0.5]];portConstraint=eastwest;whiteSpace=wrap;html=1;" vertex="1" parent="tvM6cYHnkt5RefAv2m_Q-9">
          <mxGeometry y="26" width="190" height="26" as="geometry" />
        </mxCell>
        <mxCell id="tvM6cYHnkt5RefAv2m_Q-11" value="" style="line;strokeWidth=1;fillColor=none;align=left;verticalAlign=middle;spacingTop=-1;spacingLeft=3;spacingRight=3;rotatable=0;labelPosition=right;points=[];portConstraint=eastwest;strokeColor=inherit;" vertex="1" parent="tvM6cYHnkt5RefAv2m_Q-9">
          <mxGeometry y="52" width="190" height="8" as="geometry" />
        </mxCell>
        <mxCell id="tvM6cYHnkt5RefAv2m_Q-12" value="+ PayBill(decimal amount);" style="text;strokeColor=none;fillColor=none;align=left;verticalAlign=top;spacingLeft=4;spacingRight=4;overflow=hidden;rotatable=0;points=[[0,0.5],[1,0.5]];portConstraint=eastwest;whiteSpace=wrap;html=1;" vertex="1" parent="tvM6cYHnkt5RefAv2m_Q-9">
          <mxGeometry y="60" width="190" height="26" as="geometry" />
        </mxCell>
        <mxCell id="tvM6cYHnkt5RefAv2m_Q-13" value="Extends" style="endArrow=block;endSize=16;endFill=0;html=1;rounded=0;entryX=0.149;entryY=1.035;entryDx=0;entryDy=0;entryPerimeter=0;exitX=0.75;exitY=0;exitDx=0;exitDy=0;" edge="1" parent="WIyWlLk6GJQsqaUBKTNV-1" source="tvM6cYHnkt5RefAv2m_Q-1" target="tvM6cYHnkt5RefAv2m_Q-0">
          <mxGeometry width="160" relative="1" as="geometry">
            <mxPoint x="1880" y="1090" as="sourcePoint" />
            <mxPoint x="2040" y="1090" as="targetPoint" />
            <Array as="points">
              <mxPoint x="1878" y="1080" />
              <mxPoint x="2038" y="1080" />
            </Array>
          </mxGeometry>
        </mxCell>
        <mxCell id="tvM6cYHnkt5RefAv2m_Q-14" value="Extends" style="endArrow=block;endSize=16;endFill=0;html=1;rounded=0;entryX=0.373;entryY=1.015;entryDx=0;entryDy=0;entryPerimeter=0;exitX=0.623;exitY=-0.063;exitDx=0;exitDy=0;exitPerimeter=0;" edge="1" parent="WIyWlLk6GJQsqaUBKTNV-1" source="tvM6cYHnkt5RefAv2m_Q-5" target="tvM6cYHnkt5RefAv2m_Q-0">
          <mxGeometry width="160" relative="1" as="geometry">
            <mxPoint x="2070" y="1090" as="sourcePoint" />
            <mxPoint x="2230" y="1090" as="targetPoint" />
          </mxGeometry>
        </mxCell>
        <mxCell id="tvM6cYHnkt5RefAv2m_Q-15" value="Extends" style="endArrow=block;endSize=16;endFill=0;html=1;rounded=0;entryX=0.869;entryY=1.015;entryDx=0;entryDy=0;entryPerimeter=0;exitX=0.345;exitY=-0.007;exitDx=0;exitDy=0;exitPerimeter=0;" edge="1" parent="WIyWlLk6GJQsqaUBKTNV-1" source="tvM6cYHnkt5RefAv2m_Q-9" target="tvM6cYHnkt5RefAv2m_Q-0">
          <mxGeometry width="160" relative="1" as="geometry">
            <mxPoint x="2070" y="1090" as="sourcePoint" />
            <mxPoint x="2230" y="1090" as="targetPoint" />
            <Array as="points">
              <mxPoint x="2266" y="1090" />
              <mxPoint x="2175" y="1090" />
            </Array>
          </mxGeometry>
        </mxCell>
        <mxCell id="tvM6cYHnkt5RefAv2m_Q-16" value="" style="endArrow=diamondThin;endFill=0;endSize=24;html=1;rounded=0;entryX=0.66;entryY=1.048;entryDx=0;entryDy=0;entryPerimeter=0;" edge="1" parent="WIyWlLk6GJQsqaUBKTNV-1" target="JY4HNiA_IuTMcJkgVd3S-65">
          <mxGeometry width="160" relative="1" as="geometry">
            <mxPoint x="2010" y="1000" as="sourcePoint" />
            <mxPoint x="1710" y="940" as="targetPoint" />
            <Array as="points">
              <mxPoint x="1720" y="1000" />
              <mxPoint x="1480" y="1000" />
            </Array>
          </mxGeometry>
        </mxCell>
        <mxCell id="tvM6cYHnkt5RefAv2m_Q-17" value="Bill" style="swimlane;fontStyle=1;align=center;verticalAlign=top;childLayout=stackLayout;horizontal=1;startSize=26;horizontalStack=0;resizeParent=1;resizeParentMax=0;resizeLast=0;collapsible=1;marginBottom=0;whiteSpace=wrap;html=1;" vertex="1" parent="WIyWlLk6GJQsqaUBKTNV-1">
          <mxGeometry x="2080" y="1240" width="160" height="94" as="geometry" />
        </mxCell>
        <mxCell id="tvM6cYHnkt5RefAv2m_Q-18" value="Amount:decimal&lt;br&gt;BillType:string" style="text;strokeColor=none;fillColor=none;align=left;verticalAlign=top;spacingLeft=4;spacingRight=4;overflow=hidden;rotatable=0;points=[[0,0.5],[1,0.5]];portConstraint=eastwest;whiteSpace=wrap;html=1;" vertex="1" parent="tvM6cYHnkt5RefAv2m_Q-17">
          <mxGeometry y="26" width="160" height="34" as="geometry" />
        </mxCell>
        <mxCell id="tvM6cYHnkt5RefAv2m_Q-19" value="" style="line;strokeWidth=1;fillColor=none;align=left;verticalAlign=middle;spacingTop=-1;spacingLeft=3;spacingRight=3;rotatable=0;labelPosition=right;points=[];portConstraint=eastwest;strokeColor=inherit;" vertex="1" parent="tvM6cYHnkt5RefAv2m_Q-17">
          <mxGeometry y="60" width="160" height="8" as="geometry" />
        </mxCell>
        <mxCell id="tvM6cYHnkt5RefAv2m_Q-20" value="+ method(type): type" style="text;strokeColor=none;fillColor=none;align=left;verticalAlign=top;spacingLeft=4;spacingRight=4;overflow=hidden;rotatable=0;points=[[0,0.5],[1,0.5]];portConstraint=eastwest;whiteSpace=wrap;html=1;" vertex="1" parent="tvM6cYHnkt5RefAv2m_Q-17">
          <mxGeometry y="68" width="160" height="26" as="geometry" />
        </mxCell>
        <mxCell id="tvM6cYHnkt5RefAv2m_Q-21" value="WaterBill" style="swimlane;fontStyle=1;align=center;verticalAlign=top;childLayout=stackLayout;horizontal=1;startSize=26;horizontalStack=0;resizeParent=1;resizeParentMax=0;resizeLast=0;collapsible=1;marginBottom=0;whiteSpace=wrap;html=1;" vertex="1" parent="WIyWlLk6GJQsqaUBKTNV-1">
          <mxGeometry x="1950" y="1400" width="160" height="86" as="geometry" />
        </mxCell>
        <mxCell id="tvM6cYHnkt5RefAv2m_Q-22" value="+ field: type" style="text;strokeColor=none;fillColor=none;align=left;verticalAlign=top;spacingLeft=4;spacingRight=4;overflow=hidden;rotatable=0;points=[[0,0.5],[1,0.5]];portConstraint=eastwest;whiteSpace=wrap;html=1;" vertex="1" parent="tvM6cYHnkt5RefAv2m_Q-21">
          <mxGeometry y="26" width="160" height="26" as="geometry" />
        </mxCell>
        <mxCell id="tvM6cYHnkt5RefAv2m_Q-23" value="" style="line;strokeWidth=1;fillColor=none;align=left;verticalAlign=middle;spacingTop=-1;spacingLeft=3;spacingRight=3;rotatable=0;labelPosition=right;points=[];portConstraint=eastwest;strokeColor=inherit;" vertex="1" parent="tvM6cYHnkt5RefAv2m_Q-21">
          <mxGeometry y="52" width="160" height="8" as="geometry" />
        </mxCell>
        <mxCell id="tvM6cYHnkt5RefAv2m_Q-24" value="+ method(type): type" style="text;strokeColor=none;fillColor=none;align=left;verticalAlign=top;spacingLeft=4;spacingRight=4;overflow=hidden;rotatable=0;points=[[0,0.5],[1,0.5]];portConstraint=eastwest;whiteSpace=wrap;html=1;" vertex="1" parent="tvM6cYHnkt5RefAv2m_Q-21">
          <mxGeometry y="60" width="160" height="26" as="geometry" />
        </mxCell>
        <mxCell id="tvM6cYHnkt5RefAv2m_Q-25" value="GasBill" style="swimlane;fontStyle=1;align=center;verticalAlign=top;childLayout=stackLayout;horizontal=1;startSize=26;horizontalStack=0;resizeParent=1;resizeParentMax=0;resizeLast=0;collapsible=1;marginBottom=0;whiteSpace=wrap;html=1;" vertex="1" parent="WIyWlLk6GJQsqaUBKTNV-1">
          <mxGeometry x="2130" y="1400" width="160" height="86" as="geometry" />
        </mxCell>
        <mxCell id="tvM6cYHnkt5RefAv2m_Q-26" value="+ field: type" style="text;strokeColor=none;fillColor=none;align=left;verticalAlign=top;spacingLeft=4;spacingRight=4;overflow=hidden;rotatable=0;points=[[0,0.5],[1,0.5]];portConstraint=eastwest;whiteSpace=wrap;html=1;" vertex="1" parent="tvM6cYHnkt5RefAv2m_Q-25">
          <mxGeometry y="26" width="160" height="26" as="geometry" />
        </mxCell>
        <mxCell id="tvM6cYHnkt5RefAv2m_Q-27" value="" style="line;strokeWidth=1;fillColor=none;align=left;verticalAlign=middle;spacingTop=-1;spacingLeft=3;spacingRight=3;rotatable=0;labelPosition=right;points=[];portConstraint=eastwest;strokeColor=inherit;" vertex="1" parent="tvM6cYHnkt5RefAv2m_Q-25">
          <mxGeometry y="52" width="160" height="8" as="geometry" />
        </mxCell>
        <mxCell id="tvM6cYHnkt5RefAv2m_Q-28" value="+ method(type): type" style="text;strokeColor=none;fillColor=none;align=left;verticalAlign=top;spacingLeft=4;spacingRight=4;overflow=hidden;rotatable=0;points=[[0,0.5],[1,0.5]];portConstraint=eastwest;whiteSpace=wrap;html=1;" vertex="1" parent="tvM6cYHnkt5RefAv2m_Q-25">
          <mxGeometry y="60" width="160" height="26" as="geometry" />
        </mxCell>
        <mxCell id="tvM6cYHnkt5RefAv2m_Q-29" value="ElectricityBill" style="swimlane;fontStyle=1;align=center;verticalAlign=top;childLayout=stackLayout;horizontal=1;startSize=26;horizontalStack=0;resizeParent=1;resizeParentMax=0;resizeLast=0;collapsible=1;marginBottom=0;whiteSpace=wrap;html=1;" vertex="1" parent="WIyWlLk6GJQsqaUBKTNV-1">
          <mxGeometry x="2321" y="1400" width="160" height="86" as="geometry" />
        </mxCell>
        <mxCell id="tvM6cYHnkt5RefAv2m_Q-30" value="+ field: type" style="text;strokeColor=none;fillColor=none;align=left;verticalAlign=top;spacingLeft=4;spacingRight=4;overflow=hidden;rotatable=0;points=[[0,0.5],[1,0.5]];portConstraint=eastwest;whiteSpace=wrap;html=1;" vertex="1" parent="tvM6cYHnkt5RefAv2m_Q-29">
          <mxGeometry y="26" width="160" height="26" as="geometry" />
        </mxCell>
        <mxCell id="tvM6cYHnkt5RefAv2m_Q-31" value="" style="line;strokeWidth=1;fillColor=none;align=left;verticalAlign=middle;spacingTop=-1;spacingLeft=3;spacingRight=3;rotatable=0;labelPosition=right;points=[];portConstraint=eastwest;strokeColor=inherit;" vertex="1" parent="tvM6cYHnkt5RefAv2m_Q-29">
          <mxGeometry y="52" width="160" height="8" as="geometry" />
        </mxCell>
        <mxCell id="tvM6cYHnkt5RefAv2m_Q-32" value="+ method(type): type" style="text;strokeColor=none;fillColor=none;align=left;verticalAlign=top;spacingLeft=4;spacingRight=4;overflow=hidden;rotatable=0;points=[[0,0.5],[1,0.5]];portConstraint=eastwest;whiteSpace=wrap;html=1;" vertex="1" parent="tvM6cYHnkt5RefAv2m_Q-29">
          <mxGeometry y="60" width="160" height="26" as="geometry" />
        </mxCell>
        <mxCell id="tvM6cYHnkt5RefAv2m_Q-33" value="" style="endArrow=block;dashed=1;endFill=0;endSize=12;html=1;rounded=0;exitX=0.908;exitY=0.002;exitDx=0;exitDy=0;entryX=0.115;entryY=1.023;entryDx=0;entryDy=0;entryPerimeter=0;exitPerimeter=0;" edge="1" parent="WIyWlLk6GJQsqaUBKTNV-1" source="tvM6cYHnkt5RefAv2m_Q-21" target="tvM6cYHnkt5RefAv2m_Q-20">
          <mxGeometry width="160" relative="1" as="geometry">
            <mxPoint x="2130" y="1270" as="sourcePoint" />
            <mxPoint x="2090" y="1340" as="targetPoint" />
          </mxGeometry>
        </mxCell>
        <mxCell id="tvM6cYHnkt5RefAv2m_Q-34" value="" style="endArrow=block;dashed=1;endFill=0;endSize=12;html=1;rounded=0;exitX=0.323;exitY=-0.026;exitDx=0;exitDy=0;exitPerimeter=0;" edge="1" parent="WIyWlLk6GJQsqaUBKTNV-1" source="tvM6cYHnkt5RefAv2m_Q-25">
          <mxGeometry width="160" relative="1" as="geometry">
            <mxPoint x="2070" y="1270" as="sourcePoint" />
            <mxPoint x="2180" y="1340" as="targetPoint" />
          </mxGeometry>
        </mxCell>
        <mxCell id="tvM6cYHnkt5RefAv2m_Q-35" value="" style="endArrow=block;dashed=1;endFill=0;endSize=12;html=1;rounded=0;entryX=1.02;entryY=0.841;entryDx=0;entryDy=0;entryPerimeter=0;exitX=0.25;exitY=0;exitDx=0;exitDy=0;" edge="1" parent="WIyWlLk6GJQsqaUBKTNV-1" source="tvM6cYHnkt5RefAv2m_Q-29" target="tvM6cYHnkt5RefAv2m_Q-18">
          <mxGeometry width="160" relative="1" as="geometry">
            <mxPoint x="2370" y="1390" as="sourcePoint" />
            <mxPoint x="2375" y="1334" as="targetPoint" />
            <Array as="points">
              <mxPoint x="2361" y="1295" />
            </Array>
          </mxGeometry>
        </mxCell>
        <mxCell id="tvM6cYHnkt5RefAv2m_Q-36" value="" style="endArrow=block;dashed=1;endFill=0;endSize=12;html=1;rounded=0;entryX=0.193;entryY=1.15;entryDx=0;entryDy=0;entryPerimeter=0;exitX=0.579;exitY=-0.012;exitDx=0;exitDy=0;exitPerimeter=0;" edge="1" parent="WIyWlLk6GJQsqaUBKTNV-1" source="JY4HNiA_IuTMcJkgVd3S-32" target="JY4HNiA_IuTMcJkgVd3S-31">
          <mxGeometry width="160" relative="1" as="geometry">
            <mxPoint x="702" y="710" as="sourcePoint" />
            <mxPoint x="820" y="730" as="targetPoint" />
          </mxGeometry>
        </mxCell>
        <mxCell id="tvM6cYHnkt5RefAv2m_Q-37" value="" style="endArrow=block;dashed=1;endFill=0;endSize=12;html=1;rounded=0;entryX=0.826;entryY=1;entryDx=0;entryDy=0;entryPerimeter=0;exitX=0.25;exitY=0;exitDx=0;exitDy=0;" edge="1" parent="WIyWlLk6GJQsqaUBKTNV-1" source="JY4HNiA_IuTMcJkgVd3S-36" target="JY4HNiA_IuTMcJkgVd3S-31">
          <mxGeometry width="160" relative="1" as="geometry">
            <mxPoint x="660" y="730" as="sourcePoint" />
            <mxPoint x="820" y="730" as="targetPoint" />
          </mxGeometry>
        </mxCell>
        <mxCell id="tvM6cYHnkt5RefAv2m_Q-38" value="BillType" style="swimlane;fontStyle=1;align=center;verticalAlign=top;childLayout=stackLayout;horizontal=1;startSize=26;horizontalStack=0;resizeParent=1;resizeParentMax=0;resizeLast=0;collapsible=1;marginBottom=0;whiteSpace=wrap;html=1;" vertex="1" parent="WIyWlLk6GJQsqaUBKTNV-1">
          <mxGeometry x="1760" y="800" width="160" height="124" as="geometry" />
        </mxCell>
        <mxCell id="tvM6cYHnkt5RefAv2m_Q-39" value="Gas:string&lt;br&gt;Water:string&lt;br&gt;Electricty:string" style="text;strokeColor=none;fillColor=none;align=left;verticalAlign=top;spacingLeft=4;spacingRight=4;overflow=hidden;rotatable=0;points=[[0,0.5],[1,0.5]];portConstraint=eastwest;whiteSpace=wrap;html=1;" vertex="1" parent="tvM6cYHnkt5RefAv2m_Q-38">
          <mxGeometry y="26" width="160" height="64" as="geometry" />
        </mxCell>
        <mxCell id="tvM6cYHnkt5RefAv2m_Q-40" value="" style="line;strokeWidth=1;fillColor=none;align=left;verticalAlign=middle;spacingTop=-1;spacingLeft=3;spacingRight=3;rotatable=0;labelPosition=right;points=[];portConstraint=eastwest;strokeColor=inherit;" vertex="1" parent="tvM6cYHnkt5RefAv2m_Q-38">
          <mxGeometry y="90" width="160" height="8" as="geometry" />
        </mxCell>
        <mxCell id="tvM6cYHnkt5RefAv2m_Q-41" value="+ method(type): type" style="text;strokeColor=none;fillColor=none;align=left;verticalAlign=top;spacingLeft=4;spacingRight=4;overflow=hidden;rotatable=0;points=[[0,0.5],[1,0.5]];portConstraint=eastwest;whiteSpace=wrap;html=1;" vertex="1" parent="tvM6cYHnkt5RefAv2m_Q-38">
          <mxGeometry y="98" width="160" height="26" as="geometry" />
        </mxCell>
      </root>
    </mxGraphModel>
  </diagram>
</mxfile>
